<svg width="214" height="96" viewBox="0 0 214 96" fill="none" xmlns="http://www.w3.org/2000/svg">
<path d="M113.707 95.3143V59.6402H109.71V54.1942H123.1V59.6402H119.153V95.3143H113.707Z" fill="#05A7A7"/>
<path d="M133.599 61.5888C133.599 60.2897 132.983 59.6402 131.75 59.6402H130.701V72.0312H131.8C132.999 72.0312 133.599 71.3983 133.599 70.1326V61.5888ZM133.499 95.3143C133.233 92.1833 132.949 89.1355 132.65 86.171C132.35 83.1731 132 80.1087 131.6 76.9776H130.701V95.3143H125.255V54.1942H131.75C134.249 54.1942 136.097 54.7604 137.296 55.8929C138.495 56.9921 139.095 58.8908 139.095 61.5888V70.0826C139.095 71.6815 138.912 72.9306 138.545 73.8299C138.179 74.696 137.579 75.3788 136.747 75.8784C137.28 79.2093 137.763 82.4736 138.196 85.6713C138.629 88.869 139.045 92.0833 139.445 95.3143H133.499Z" fill="#05A7A7"/>
<path d="M151.187 95.3143L150.587 89.4686H146.59L145.89 95.3143H140.644L145.641 54.1942H151.936L156.633 95.3143H151.187ZM149.988 84.5221C149.721 81.8241 149.471 79.1261 149.238 76.428C149.005 73.73 148.788 70.9653 148.589 68.134C148.189 73.73 147.689 79.1927 147.09 84.5221H149.988Z" fill="#05A7A7"/>
<path d="M158.924 95.3143V54.1942H164.37V95.3143H158.924Z" fill="#05A7A7"/>
<path d="M177.194 95.3143C176.362 91.3505 175.662 88.0196 175.096 85.3216C174.563 82.6235 174.097 80.3419 173.697 78.4765C173.33 76.6112 173.031 75.0457 172.798 73.78C172.564 72.5142 172.348 71.2984 172.148 70.1326C172.215 72.5642 172.248 74.9791 172.248 77.3773C172.281 79.7756 172.298 82.2238 172.298 84.722V95.3143H167.751V54.1942H173.997C174.696 58.5244 175.262 62.1051 175.695 64.9364C176.162 67.7676 176.528 70.1159 176.795 71.9813C177.094 73.8466 177.328 75.3788 177.494 76.5779C177.661 77.7437 177.827 78.8596 177.994 79.9255C177.927 77.7271 177.877 75.562 177.844 73.4302C177.844 71.2984 177.844 69.1666 177.844 67.0348V54.1942H182.391V95.3143H177.194Z" fill="#05A7A7"/>
<path d="M185.709 95.3143V54.1942H197.001V59.6402H191.155V71.6315H194.853V77.0776H191.155V89.8683H197.251V95.3143H185.709Z" fill="#05A7A7"/>
<path d="M208.154 61.5888C208.154 60.2897 207.538 59.6402 206.306 59.6402H205.256V72.0312H206.356C207.555 72.0312 208.154 71.3983 208.154 70.1326V61.5888ZM208.054 95.3143C207.788 92.1833 207.505 89.1355 207.205 86.171C206.905 83.1731 206.555 80.1087 206.156 76.9776H205.256V95.3143H199.81V54.1942H206.306C208.804 54.1942 210.652 54.7604 211.852 55.8929C213.051 56.9921 213.65 58.8908 213.65 61.5888V70.0826C213.65 71.6815 213.467 72.9306 213.101 73.8299C212.734 74.696 212.135 75.3788 211.302 75.8784C211.835 79.2093 212.318 82.4736 212.751 85.6713C213.184 88.869 213.6 92.0833 214 95.3143H208.054Z" fill="#05A7A7"/>
<path d="M124.256 52.9092L123.651 47.0154H119.621L118.916 52.9092H113.627L118.664 11.4513H125.011L129.746 52.9092H124.256ZM123.047 42.0284C122.778 39.3082 122.526 36.588 122.291 33.8678C122.056 31.1476 121.838 28.3602 121.636 25.5057C121.233 31.1476 120.729 36.6551 120.125 42.0284H123.047Z" fill="#05A7A7"/>
<path d="M131.956 52.9092V11.4513H137.447V47.4184H143.593V52.9092H131.956Z" fill="#05A7A7"/>
<path d="M154.394 18.9067C154.394 17.597 153.755 16.9421 152.479 16.9421H151.27V27.8733H152.53C153.772 27.8733 154.394 27.2352 154.394 25.9591V18.9067ZM145.78 52.9092V11.4513H152.479C154.998 11.4513 156.845 12.0558 158.02 13.2648C159.196 14.4402 159.784 16.3376 159.784 18.9571V25.7576C159.784 28.377 159.196 30.2744 158.02 31.4498C156.879 32.6252 155.048 33.2129 152.53 33.2129H151.27V52.9092H145.78Z" fill="#05A7A7"/>
<path d="M170.17 52.9092V34.5226H167.652V52.9092H162.161V11.4513H167.652V29.0319H170.17V11.4513H175.611V52.9092H170.17Z" fill="#05A7A7"/>
<path d="M188.404 52.9092L187.799 47.0154H183.769L183.064 52.9092H177.775L182.812 11.4513H189.159L193.895 52.9092H188.404ZM187.195 42.0284C186.926 39.3082 186.674 36.588 186.439 33.8678C186.204 31.1476 185.986 28.3602 185.784 25.5057C185.381 31.1476 184.878 36.6551 184.273 42.0284H187.195Z" fill="#05A7A7"/>
<path d="M103.925 95.4936H92.7533L81.3527 73.6005L88.0102 64.9439L103.925 95.4936Z" fill="#05A7A7"/>
<path d="M87.984 64.9047L64.4837 95.4479H0L41.885 0.133545H51.7438L13.8833 86.2751H59.8647L76.6095 64.5192L53.1223 19.4329L58.0027 7.35938L87.984 64.9047Z" fill="#05A7A7"/>
</svg>
