<svg width="289" height="74" viewBox="0 0 289 74" fill="none" xmlns="http://www.w3.org/2000/svg">
<path fill-rule="evenodd" clip-rule="evenodd" d="M219.347 0.202415C217.425 0.818225 216.008 2.50834 215.715 4.53697C215.549 5.68467 215.551 67.6056 215.717 68.6463C216.073 70.8799 217.866 72.7291 220.071 73.1379C220.96 73.3028 283.646 73.3002 284.515 73.1353C286.653 72.73 288.482 70.9197 288.865 68.8314C289.04 67.8797 289.047 5.25265 288.873 4.33378C288.561 2.68953 287.402 1.18937 285.862 0.436683L285.034 0.0324462L252.53 0.00880659C221.269 -0.0138874 219.999 -0.00655913 219.347 0.202415ZM40.9005 10.2094C38.7599 10.7847 36.8613 12.796 36.4157 14.9607C35.4733 19.5385 39.5574 23.5506 44.0756 22.4857C46.3344 21.9532 48.1727 20.1451 48.7531 17.885C49.6035 14.5728 47.5482 11.0576 44.2601 10.2011C43.3948 9.97572 41.7548 9.97974 40.9005 10.2094ZM233.495 10.3193C235.603 10.8684 237.348 12.589 237.98 14.74C238.085 15.096 238.169 15.8103 238.169 16.3437C238.169 18.0245 237.547 19.5051 236.328 20.7281C235.05 22.0096 233.428 22.6264 231.613 22.521C228.498 22.3399 225.992 19.8347 225.79 16.6983C225.603 13.8136 227.581 11.1042 230.449 10.3158C231.232 10.1005 232.661 10.1022 233.495 10.3193ZM0 36.5556V62.3818H16.134H32.268V57.122V51.8622H21.8075H11.347V31.2958V10.7293H5.6735H0V36.5556ZM93.3763 36.5556V62.3818H98.8717H104.367L104.397 53.7969L104.428 45.2118L110.15 53.7969L115.872 62.3818H122.782C128.294 62.3818 129.668 62.3519 129.575 62.2341C129.51 62.1529 126.367 57.9168 122.589 52.8208L115.721 43.5551L116.412 42.774C122.556 35.8265 129.899 27.4385 129.899 27.3681C129.899 27.3179 126.896 27.277 123.226 27.277H116.552L110.49 34.2836L104.428 41.2902L104.398 26.0097L104.368 10.7293H98.872H93.3763V36.5556ZM193.963 20.7753V30.8213L192.928 29.7879C190.526 27.3878 187.385 26.2981 182.852 26.2927C180.589 26.29 179.219 26.5011 177.506 27.1164C174.739 28.1098 172.159 30.1167 170.297 32.7243C166.602 37.8968 165.545 45.6833 167.683 51.9804C168.52 54.4432 169.713 56.4211 171.461 58.2419C173.759 60.6365 176.471 62.1044 180.015 62.8715C181.076 63.1012 181.6 63.1399 183.62 63.1381C185.79 63.1363 186.078 63.1109 187.116 62.8301C188.595 62.4303 189.802 61.9208 190.957 61.2088C192.087 60.5129 193.611 59.203 194.258 58.3727L194.731 57.7658L194.763 60.0737L194.795 62.3818H199.875H204.955V36.5556V10.7293H199.459H193.963V20.7753ZM143.666 26.5127C134.473 27.8555 128.167 34.4145 127.55 43.2755C127.002 51.1449 130.611 57.7021 137.352 61.0848C141.955 63.3945 147.924 63.9144 152.81 62.431C154.804 61.8256 157.017 60.7002 158.681 59.4455C159.533 58.8027 161.933 56.4776 161.926 56.3015C161.92 56.166 154.456 50.6767 154.29 50.6858C154.234 50.6888 154.003 50.96 153.775 51.2885C153.136 52.211 151.74 53.3475 150.525 53.9346C148.975 54.6835 148.197 54.8596 146.447 54.8577C145.173 54.8564 144.84 54.8135 144.024 54.5454C141.329 53.6595 139.305 51.539 138.609 48.8734L138.432 48.1981H151.009H163.586V45.5931C163.586 42.7766 163.47 41.3539 163.093 39.5105C162.004 34.2024 159.004 30.0409 154.78 27.9817C152.262 26.7539 150.19 26.3246 146.879 26.3441C145.699 26.3512 144.253 26.427 143.666 26.5127ZM72.879 26.5719C69.4998 27.1064 66.3975 29.0986 64.7865 31.7686L64.5369 32.1823L64.5365 29.7887L64.536 27.3952H59.2762H54.0164V44.8885V62.3818H59.5077H64.999L65.036 52.1872L65.073 41.9927L65.3839 40.8593C65.7789 39.4189 66.1831 38.6247 66.9151 37.8508C67.9505 36.756 69.5062 36.1486 71.2868 36.1439C74.2247 36.1362 75.9856 37.5717 76.6488 40.5152C76.9592 41.8927 77.0554 45.0645 77.0604 54.0784L77.065 62.3818H82.5021H87.9392L87.9381 51.4781C87.9377 45.1876 87.8871 39.9991 87.8188 39.215C87.1541 31.5868 84.1785 27.7293 78.1947 26.7389C76.8682 26.5193 73.817 26.4234 72.879 26.5719ZM268.257 26.8602C273.021 27.635 275.977 30.3768 277.179 35.1363C277.93 38.1114 277.92 37.9203 277.969 50.6507L278.014 62.2636H272.635H267.256L267.215 51.7735C267.175 41.428 267.171 41.27 266.916 40.3087C266.087 37.1774 264.208 35.8347 260.977 36.0641C258.175 36.263 256.518 37.4968 255.643 40.0367C255.101 41.6128 255.072 42.237 255.071 52.5418L255.071 62.2636H249.693H244.315V44.8885V27.5134H249.457H254.598V29.8774C254.598 31.2951 254.643 32.2414 254.711 32.2414C254.773 32.2414 254.994 31.9888 255.203 31.6799C257.025 28.9861 259.855 27.2153 263.178 26.6901C264.092 26.5456 266.901 26.6396 268.257 26.8602ZM37.1141 44.8885V62.3818H42.6103H48.1065V44.8885V27.3952H42.6103H37.1141V44.8885ZM237.341 44.8885V62.2636H231.963H226.585V44.8885V27.5134H231.963H237.341V44.8885ZM147.601 34.3849C150.157 34.8766 152.593 37.7054 152.593 40.1821V40.7516H145.509H138.425L138.493 40.3084C138.618 39.5001 139.139 38.2211 139.672 37.4155C141.339 34.8921 144.319 33.7533 147.601 34.3849ZM188.878 36.2601C190.322 36.6721 191.305 37.2532 192.37 38.3218C193.434 39.3909 193.996 40.3801 194.457 41.9927C194.817 43.255 194.843 46.031 194.507 47.3116C193.68 50.4612 191.685 52.4742 188.585 53.2866C187.268 53.6316 185.065 53.6329 183.739 53.2893C180.713 52.5054 178.705 50.4976 177.872 47.4229C177.509 46.0835 177.508 43.4658 177.87 42.1109C178.521 39.6769 179.962 37.8108 181.916 36.8721C182.83 36.4331 183.782 36.127 184.684 35.9821C185.531 35.846 188.001 36.0097 188.878 36.2601Z" fill="#0A66C2"/>
</svg>
