<svg width="295" height="95" viewBox="0 0 295 95" fill="none" xmlns="http://www.w3.org/2000/svg">
<path fill-rule="evenodd" clip-rule="evenodd" d="M38.9999 0.0137428C35.2395 0.295717 31.7743 1.6734 28.8379 4.05384C24.1398 7.86246 21.0659 14.0883 20.6707 20.5958L20.623 21.3792H11.4341C4.96935 21.3792 2.15191 21.4027 1.93028 21.4585C1.54342 21.5559 1.07955 21.9415 0.871136 22.3388C0.735501 22.5974 0.716679 22.74 0.727383 23.4266C0.734136 23.8613 1.32308 37.0673 2.0361 52.7735C2.90645 71.9445 3.36723 81.534 3.43814 81.9505C3.94727 84.9408 5.91685 87.3694 8.55053 88.2546C9.71039 88.6444 7.7929 88.6219 39.7542 88.6219C65.3739 88.6219 69.3412 88.608 69.864 88.5164C73.2412 87.925 75.8914 85.0767 76.3178 81.5806C76.3946 80.9508 79.181 24.8493 79.2116 23.3189C79.2231 22.7401 79.2014 22.5911 79.0687 22.3388C78.8598 21.9413 78.3959 21.5558 78.0092 21.4585C77.7876 21.4027 74.9712 21.3792 68.509 21.3792H59.3238L59.2398 20.2836C58.4385 9.82938 51.3318 1.41614 42.2327 0.149665C41.4843 0.0454963 39.6213 -0.0328098 38.9999 0.0137428ZM42.3046 5.35846C48.7011 6.71395 53.509 12.9856 54.0218 20.6428L54.071 21.3792H39.9693H25.8674L25.9156 20.6428C26.2275 15.8746 28.3331 11.3363 31.5644 8.46729C33.5516 6.70296 35.9861 5.55523 38.4611 5.21586C39.2784 5.10379 41.49 5.18583 42.3046 5.35846ZM132.372 31.933C132.203 31.9621 132.009 32.0414 131.941 32.1091C131.825 32.2248 131.817 33.6232 131.799 55.2273C131.787 71.2066 131.804 78.3083 131.857 78.5042C131.91 78.7007 131.988 78.8068 132.113 78.8547C132.378 78.9551 136.472 78.944 136.695 78.8422C136.793 78.7976 136.907 78.6764 136.949 78.5728C137 78.4458 137.032 75.7473 137.047 70.2666C137.07 62.2963 137.073 62.1375 137.221 61.538C137.969 58.515 140.082 56.2031 142.953 55.264C144.633 54.7146 146.694 54.723 148.377 55.2862C150.864 56.1185 152.972 58.2318 153.79 60.7134C154.167 61.8548 154.15 61.4598 154.193 70.3628L154.232 78.6488L154.402 78.7861C154.561 78.9147 154.713 78.9234 156.818 78.9234C158.924 78.9234 159.076 78.9147 159.235 78.7861L159.405 78.6488L159.426 70.7938C159.448 62.4906 159.432 61.943 159.119 60.5004C158.191 56.2256 155.183 52.5952 151.123 50.8516C147.271 49.1974 143.073 49.335 139.326 51.2383C138.752 51.5295 138.015 51.9617 137.686 52.1988C137.358 52.4358 137.075 52.6298 137.058 52.6298C137.04 52.6298 137.026 48.0898 137.026 42.5409C137.026 36.327 137 32.3828 136.958 32.2721C136.826 31.9252 136.7 31.9047 134.62 31.8919C133.553 31.8854 132.541 31.9039 132.372 31.933ZM108.326 32.0479C105.872 32.3956 103.675 33.2004 101.862 34.4161C99.0478 36.3029 97.281 38.8889 96.6822 41.9974C96.486 43.0163 96.5008 45.0099 96.7121 45.9985C97.3952 49.196 99.344 51.7313 102.722 53.8178C104.211 54.7372 106.972 55.8406 111.703 57.4067C115.175 58.5563 116.491 59.151 118.148 60.3199C119.335 61.157 120.454 62.3934 121.004 63.4777C121.727 64.9026 121.854 66.7487 121.333 68.2797C120.499 70.7306 118.12 72.6091 114.825 73.4176C113.184 73.8203 111.516 73.9644 110.086 73.8271C106.234 73.4569 102.839 72.0928 99.2741 69.4829C97.9701 68.5283 97.9397 68.5416 96.5162 70.6904C95.9296 71.5759 95.4279 72.3871 95.4012 72.4931C95.3023 72.8874 95.6691 73.262 97.2626 74.3945C99.4417 75.9432 101.227 76.8431 103.728 77.6531C106.463 78.5389 108.682 78.8785 111.774 78.884C113.85 78.8877 114.391 78.8334 116.121 78.4475C122.34 77.06 126.259 72.8835 126.832 67.0338C127.098 64.3108 126.517 61.9092 125.076 59.7779C124.512 58.9433 123.075 57.5018 122.048 56.7399C119.534 54.8759 116.057 53.2824 111.047 51.698C105.491 49.9412 102.782 47.9646 102.032 45.1225C101.824 44.3335 101.825 43.1871 102.035 42.3925C102.985 38.7974 106.959 36.4855 111.612 36.8223C114.942 37.0634 117.707 37.9507 120.569 39.6964C121.535 40.2861 121.868 40.341 122.235 39.9712C122.542 39.6612 124.133 37.3546 124.276 37.0125C124.469 36.55 124.42 36.3031 124.071 35.981C123.663 35.6058 122.629 35.0008 121.271 34.3442C119.028 33.2591 116.747 32.5643 114.073 32.1517C112.76 31.9491 109.446 31.8892 108.326 32.0479ZM42.5942 32.574C45.2712 32.9879 47.488 33.6888 49.776 34.8448C51.9318 35.934 52.6372 36.4707 52.5013 36.9183C52.4385 37.1248 50.9718 39.4725 50.7952 39.6492C50.6071 39.8372 50.3456 39.7719 49.7535 39.3889C46.8374 37.5024 43.5188 36.4626 40.0416 36.3457C39.0645 36.3129 38.6041 36.3301 37.9751 36.4232C34.9366 36.8724 32.556 38.4391 31.3942 40.7541C31.2912 40.9592 31.1202 41.4118 31.0141 41.7598C30.8475 42.3065 30.8206 42.5244 30.8161 43.3624C30.8118 44.1658 30.8388 44.4284 30.9729 44.8925C31.573 46.9684 33.2445 48.6384 36.1263 50.0416C37.2303 50.5791 37.8786 50.831 40.4008 51.7023C47.7496 54.2411 51.7341 56.8957 53.4978 60.4276C54.227 61.8881 54.5264 63.3761 54.4585 65.2019C54.3841 67.2003 54.0118 68.6729 53.152 70.37C51.1149 74.3911 46.6659 76.862 41.1524 77.0346C37.178 77.159 33.077 76.2506 29.5529 74.4654C27.6805 73.5168 24.8833 71.4781 24.8833 71.0619C24.8833 70.8758 26.5107 68.428 26.8378 68.1222C27.0107 67.9606 27.1008 67.9264 27.2663 67.9594C27.3816 67.9825 27.9029 68.3205 28.4246 68.7106C31.5288 71.0312 34.5774 72.3183 38.1737 72.8263C39.0766 72.9538 40.8604 72.9339 41.8735 72.7849C45.6362 72.2316 48.3156 70.5952 49.5258 68.1114C50.2342 66.6576 50.3886 65.1607 49.9897 63.6115C49.4125 61.3691 47.3109 59.2197 44.2453 57.7364C43.1719 57.217 42.6945 57.0269 41.1551 56.5057C39.1129 55.8143 36.6134 54.8563 34.4938 53.9527C33.1841 53.3943 32.7276 53.1567 31.8518 52.5776C28.9194 50.6386 27.211 48.367 26.5964 45.5894C26.3761 44.594 26.3572 42.593 26.5591 41.6382C27.0153 39.481 27.9421 37.7793 29.5135 36.2142C30.4247 35.3066 31.111 34.78 32.169 34.1765C33.6173 33.3503 35.471 32.7422 37.3476 32.4778C38.4084 32.3283 41.3545 32.3824 42.5942 32.574ZM176.898 49.4776C170.58 50.2047 165.39 54.9209 164.146 61.0646C163.608 63.7202 163.86 66.6741 164.832 69.127C166.797 74.085 171.256 77.5628 176.603 78.3085C177.531 78.4381 179.517 78.457 180.42 78.345C183.082 78.0147 185.654 76.9654 187.782 75.3419C188.388 74.879 189.692 73.6 190.208 72.9607C193.723 68.6124 194.407 62.61 191.955 57.6227C189.771 53.1817 185.513 50.1469 180.573 49.5111C179.624 49.3889 177.812 49.3724 176.898 49.4776ZM245.483 49.5079C243.2 49.8189 241.013 50.7215 239.093 52.1454C238.369 52.6816 237.163 53.8438 236.577 54.5695C234.982 56.5437 233.892 58.9907 233.471 61.538C233.312 62.5063 233.256 64.4236 233.36 65.3815C234.082 72.0559 239.04 77.1761 245.829 78.2584C246.459 78.3589 247.07 78.3843 248.846 78.384C250.96 78.3836 251.13 78.3735 252.196 78.1848C255.283 77.638 258.207 76.3564 259.923 74.7978C260.652 74.1355 260.809 73.7387 260.546 73.2265C260.32 72.7884 258.782 70.4811 258.56 70.2487C258.282 69.9582 258.043 69.9482 257.696 70.2128C257.553 70.3215 257.136 70.643 256.769 70.9274C256.402 71.2118 255.827 71.608 255.491 71.8078C252.029 73.8681 247.042 74.0934 243.561 72.347C242.241 71.6845 240.774 70.4279 240 69.2968C239.32 68.3035 238.709 66.8952 238.564 65.9901L238.519 65.7048L249.358 65.7032C259.755 65.7017 260.209 65.6962 260.484 65.5686C261.16 65.2555 261.382 64.7965 261.382 63.7135C261.379 60.4765 260.16 57.0759 258.096 54.5495C257.6 53.9414 256.457 52.814 255.886 52.37C253.322 50.3728 250.434 49.382 247.244 49.4044C246.663 49.4085 245.871 49.455 245.483 49.5079ZM279.202 49.4752C275.461 49.9591 272.024 51.9618 269.762 54.975C266.776 58.9538 265.973 64.3437 267.682 68.9376C269.523 73.8865 273.898 77.3853 279.339 78.26C280.322 78.418 284.063 78.4362 285.054 78.2878C288.129 77.8271 290.748 76.816 292.812 75.2923C293.435 74.833 293.957 74.3044 294.112 73.9779C294.207 73.7778 294.215 73.6805 294.152 73.4712C294.058 73.1611 292.289 70.4485 292.014 70.1938C291.668 69.8725 291.475 69.9385 290.616 70.6711C287.185 73.5988 281.568 74.3761 277.377 72.5033C275.475 71.6531 273.651 69.8869 272.769 68.0396C272.462 67.3968 272.149 66.4891 272.056 65.9742L272.008 65.7048H282.845H293.682L294.06 65.5163C294.481 65.3068 294.73 64.9883 294.859 64.4943C294.976 64.0483 294.838 62.1269 294.606 60.9784C293.451 55.2486 289.108 50.793 283.57 49.6565C282.331 49.4022 280.389 49.3216 279.202 49.4752ZM198.968 49.5475C198.819 49.592 198.706 49.6851 198.663 49.7996C198.555 50.0818 198.57 93.4478 198.677 93.6836C198.814 93.9829 199.131 94.0203 201.327 93.9961C203.303 93.9743 203.334 93.9717 203.495 93.8104L203.658 93.6468L203.677 84.4509L203.696 75.2551L204.18 75.6441C206.144 77.2225 208.684 78.3079 211.281 78.6782C212.399 78.8377 214.368 78.8363 215.44 78.6754C220.815 77.8686 225.202 74.3784 227.138 69.3686C227.807 67.6374 228.073 66.1551 228.073 64.1602C228.073 62.1653 227.807 60.683 227.138 58.9518C225.202 53.9422 220.807 50.4458 215.44 49.6459C214.364 49.4855 212.394 49.4838 211.281 49.6423C208.687 50.0119 206.144 51.0979 204.184 52.6732L203.704 53.059L203.681 51.4454C203.659 49.8772 203.654 49.8272 203.495 49.6682C203.333 49.5065 203.31 49.5046 201.268 49.4908C200.079 49.4828 199.104 49.5067 198.968 49.5475ZM180.388 54.5367C183.661 55.1074 186.558 57.5018 187.724 60.6C187.821 60.8556 187.985 61.4056 188.09 61.8222C188.262 62.5061 188.281 62.7087 188.281 63.9088C188.281 65.1088 188.262 65.3114 188.09 65.9953C187.456 68.5155 186.114 70.4329 184.01 71.8261C181.531 73.4676 178.289 73.8789 175.461 72.9107C174.342 72.5275 173.109 71.8149 172.232 71.0449C170.616 69.6247 169.573 67.848 169.129 65.7575C168.909 64.7213 168.909 63.0962 169.129 62.06C170.025 57.8405 173.444 54.8427 177.868 54.3971C178.372 54.3464 179.727 54.4214 180.388 54.5367ZM248.309 54.4286C251.051 54.7648 253.514 56.3114 255.051 58.6627C255.436 59.2505 255.994 60.4222 255.994 60.6412C255.994 60.7348 254.956 60.7478 247.449 60.7478C242.094 60.7478 238.889 60.7221 238.862 60.6791C238.805 60.5869 239.275 59.3835 239.583 58.8321C240.159 57.8016 241.039 56.8057 242.008 56.0896C243.022 55.3395 244.596 54.6803 245.793 54.5046C246.917 54.3395 247.451 54.3234 248.309 54.4286ZM282.49 54.534C284.234 54.8686 285.932 55.7774 287.249 57.0801C287.979 57.8028 288.338 58.2572 288.783 59.02C289.097 59.5592 289.547 60.6121 289.497 60.6925C289.479 60.7229 285.618 60.7478 280.919 60.7478C272.432 60.7478 272.374 60.7468 272.374 60.6046C272.374 60.3615 272.876 59.191 273.241 58.5835C275.117 55.4623 278.838 53.8333 282.49 54.534ZM214.979 54.6831C217.914 55.176 220.56 57.0981 221.926 59.7314C222.37 60.5858 222.599 61.2201 222.815 62.1904C223.034 63.1784 223.051 65.0491 222.848 65.9883C222.424 67.951 221.568 69.5352 220.186 70.9176C218.817 72.2868 217.185 73.1677 215.238 73.5879C214.402 73.7686 212.304 73.7665 211.453 73.5842C207.592 72.7573 204.684 69.869 203.857 66.0418C203.76 65.5918 203.731 65.1321 203.733 64.0884C203.735 62.8531 203.754 62.6506 203.928 61.9571C204.533 59.5434 205.883 57.5932 207.898 56.2235C208.984 55.4855 210.445 54.8922 211.694 54.6824C212.517 54.5441 214.153 54.5446 214.979 54.6831Z" fill="#F33D2D"/>
</svg>
