<svg width="52" height="31" viewBox="0 0 52 31" fill="none" xmlns="http://www.w3.org/2000/svg">
<path d="M50.8554 1.62681C50.1223 0.893923 49.1281 0.482212 48.0915 0.482212C47.0549 0.482212 46.0607 0.893923 45.3276 1.62681L25.9764 20.978L6.6252 1.62681C5.88789 0.914694 4.90039 0.520657 3.87537 0.529562C2.85036 0.538469 1.86984 0.94961 1.14502 1.67443C0.4202 2.39925 0.00906372 3.37977 0.000156403 4.40478C-0.00875092 5.42979 0.385288 6.4173 1.0974 7.15461L23.2125 29.2697C23.9456 30.0026 24.9398 30.4143 25.9764 30.4143C27.013 30.4143 28.0072 30.0026 28.7403 29.2697L50.8554 7.15461C51.5883 6.4215 52 5.42732 52 4.39071C52 3.3541 51.5883 2.35992 50.8554 1.62681Z" fill="#ED1566"/>
</svg>
