<svg width="38" height="26" viewBox="0 0 38 26" fill="none" xmlns="http://www.w3.org/2000/svg">
<path fill-rule="evenodd" clip-rule="evenodd" d="M0.129917 13.3694C0.129917 13.0006 0.271367 12.647 0.523151 12.3863C0.774936 12.1255 1.11643 11.9791 1.47251 11.9791H33.1388L24.6886 3.23116C24.5638 3.10189 24.4647 2.94843 24.3972 2.77954C24.3296 2.61064 24.2949 2.42962 24.2949 2.24681C24.2949 2.064 24.3296 1.88298 24.3972 1.71409C24.4647 1.54519 24.5638 1.39173 24.6886 1.26247C24.8134 1.1332 24.9616 1.03066 25.1247 0.960702C25.2878 0.890744 25.4626 0.854736 25.6391 0.854736C25.8157 0.854736 25.9905 0.890744 26.1536 0.960702C26.3167 1.03066 26.4649 1.1332 26.5897 1.26247L37.3304 12.385C37.4554 12.5142 37.5546 12.6676 37.6223 12.8365C37.69 13.0054 37.7249 13.1865 37.7249 13.3694C37.7249 13.5523 37.69 13.7333 37.6223 13.9022C37.5546 14.0712 37.4554 14.2246 37.3304 14.3537L26.5897 25.4763C26.4649 25.6056 26.3167 25.7081 26.1536 25.7781C25.9905 25.848 25.8157 25.884 25.6391 25.884C25.4626 25.884 25.2878 25.848 25.1247 25.7781C24.9616 25.7081 24.8134 25.6056 24.6886 25.4763C24.5638 25.347 24.4647 25.1936 24.3972 25.0247C24.3296 24.8558 24.2949 24.6748 24.2949 24.4919C24.2949 24.3091 24.3296 24.1281 24.3972 23.9592C24.4647 23.7903 24.5638 23.6369 24.6886 23.5076L33.1388 14.7597H1.47251C1.11643 14.7597 0.774936 14.6132 0.523151 14.3525C0.271367 14.0917 0.129917 13.7381 0.129917 13.3694Z" fill="#F33D2D"/>
</svg>
