<svg width="318" height="81" viewBox="0 0 318 81" fill="none" xmlns="http://www.w3.org/2000/svg">
<mask id="mask0_3_94" style="mask-type:alpha" maskUnits="userSpaceOnUse" x="0" y="0" width="318" height="81">
<path d="M38.3074 0H28.9149V10.6236H38.3074V0Z" fill="#D4B484"/>
<path d="M36.3226 58.2734V80.6197L0 0H12.8143L36.3226 58.2734Z" fill="#D4B484"/>
<path d="M73.5508 0L49.869 80.6197H40.7911V0H49.1206V47.449L58.3612 10.6236H53.101V0H73.5508Z" fill="#D4B484"/>
<path d="M96.6471 49.941L105.144 28.3857H116.274L100.221 62.836H89.7181L84.294 28.3857H94.8914L96.6471 49.941Z" fill="#D4B484"/>
<path d="M144.27 29.9864L125.851 62.836H116.616L134.958 31.6796H117.847L118.925 24.9065H145.065L144.27 29.9864Z" fill="#D4B484"/>
<path d="M149.631 62.836H146.501L152.991 24.9065H156.121L149.631 62.836Z" fill="#D4B484"/>
<path d="M166.613 34.6494L165.741 39.2343C168.238 35.7609 171.376 34.0589 175.155 34.1284C177.105 34.1631 178.721 34.6581 180.003 35.6133C181.303 36.5684 182.107 37.897 182.415 39.599C183.68 37.8449 185.151 36.4903 186.827 35.5351C188.52 34.5626 190.358 34.0937 192.342 34.1284C194.976 34.1805 196.926 35.0662 198.191 36.7855C199.474 38.4875 200.004 40.8494 199.782 43.8712L199.73 44.4704L196.678 62.836H193.625L196.652 44.4183C196.755 43.3937 196.763 42.4211 196.678 41.5007C196.336 38.4267 194.608 36.8637 191.496 36.8116C189.409 36.7768 187.485 37.4715 185.724 38.8956C183.98 40.3023 182.885 42.0651 182.44 44.1838L179.26 62.836H176.207L179.285 44.1838C179.781 39.3906 178.045 36.9331 174.078 36.8116C172.111 36.7768 170.281 37.4021 168.588 38.6872C166.895 39.9724 165.758 41.5701 165.176 43.4805L161.893 62.836H158.84L163.663 34.6494H166.613Z" fill="#D4B484"/>
<path d="M205.194 48.4822C205.502 45.7556 206.323 43.2634 207.657 41.0057C208.991 38.7306 210.65 37.0026 212.633 35.8217C214.634 34.6407 216.798 34.0763 219.123 34.1284C221.415 34.1631 223.365 34.8057 224.972 36.0561C226.597 37.2892 227.777 38.9824 228.512 41.1359C229.265 43.2721 229.521 45.6427 229.282 48.2477L229.231 48.7427C228.717 53.1886 227.161 56.7575 224.562 59.4494C221.979 62.1413 218.876 63.4438 215.25 63.357C212.137 63.3049 209.649 62.1413 207.785 59.8662C205.921 57.5911 205.006 54.5867 205.04 50.8528L205.117 49.3679L205.194 48.4822ZM208.17 49.3679C207.948 51.4346 208.093 53.3449 208.606 55.099C209.136 56.8357 209.974 58.199 211.12 59.1889C212.266 60.1788 213.694 60.6998 215.404 60.7519C217.251 60.7867 218.935 60.3091 220.457 59.3192C221.997 58.3292 223.262 56.9312 224.254 55.125C225.246 53.3189 225.887 51.3217 226.178 49.1334L226.255 48.2738C226.563 44.9219 226.05 42.1866 224.716 40.0679C223.399 37.9317 221.484 36.8376 218.97 36.7855C216.233 36.6987 213.865 37.7754 211.864 40.0158C209.88 42.2388 208.666 45.1998 208.221 48.899L208.17 49.3679ZM224.074 22.8225L227.948 22.8485L221.073 30.0906L218.2 30.1166L224.074 22.8225Z" fill="#D4B484"/>
<path d="M242.159 58.4334L254.011 34.6494H257.243L242.852 62.836H240.364L234.592 34.6494H237.619L242.159 58.4334Z" fill="#D4B484"/>
<path d="M268.299 63.357C266.076 63.3222 264.152 62.697 262.527 61.4813C260.903 60.2483 259.706 58.5811 258.936 56.4797C258.184 54.3609 257.919 52.0771 258.141 49.6284L258.218 48.7427C258.457 46.1376 259.218 43.6628 260.501 41.3183C261.784 38.9564 263.408 37.1589 265.375 35.9259C267.342 34.6754 269.445 34.0763 271.685 34.1284C273.755 34.1631 275.499 34.7362 276.919 35.8477C278.355 36.9592 279.398 38.5049 280.048 40.4847C280.698 42.4645 280.903 44.6528 280.664 47.0494L280.459 48.9511H261.245L261.168 49.5763C260.911 51.4693 261.048 53.2841 261.578 55.0208C262.108 56.7402 262.972 58.1121 264.169 59.1368C265.383 60.1441 266.837 60.6651 268.53 60.6998C270.172 60.7519 271.651 60.4306 272.968 59.736C274.285 59.0413 275.499 58.1121 276.611 56.9486L278.406 58.4334C277.158 60.0659 275.67 61.3077 273.943 62.1586C272.233 62.9923 270.351 63.3917 268.299 63.357ZM271.531 36.7855C269.308 36.6987 267.316 37.4976 265.554 39.1822C263.793 40.8668 262.468 43.2374 261.578 46.2939L277.688 46.32L277.765 45.9292C278.073 43.4631 277.645 41.3444 276.482 39.5729C275.319 37.7841 273.669 36.855 271.531 36.7855Z" fill="#D4B484"/>
<path d="M287.282 62.836H284.204L289.052 34.6494H292.105L287.282 62.836ZM289.899 26.4956C289.984 25.3668 290.72 24.6547 292.105 24.3595C292.772 24.481 293.242 24.6981 293.516 25.0107C293.806 25.306 293.995 25.8009 294.08 26.4956C293.909 27.1556 293.661 27.6418 293.336 27.9544C293.011 28.2497 292.524 28.4668 291.874 28.6057C290.489 28.3973 289.83 27.6939 289.899 26.4956Z" fill="#D4B484"/>
<path d="M313.114 55.4897C313.388 53.0931 311.951 51.3564 308.805 50.2797L304.392 48.9511C300.339 47.5617 298.424 45.2432 298.646 41.9956C298.766 39.6511 299.826 37.7494 301.827 36.2906C303.845 34.8144 306.239 34.0937 309.01 34.1284C311.729 34.1631 313.935 34.9446 315.628 36.4729C317.321 37.9838 318.108 40.0071 317.988 42.5427H314.961C315.064 40.8581 314.542 39.4861 313.396 38.4267C312.268 37.3673 310.763 36.8203 308.882 36.7855C306.932 36.7855 305.29 37.2544 303.956 38.1922C302.622 39.1127 301.87 40.3371 301.699 41.8654C301.442 44.1057 302.793 45.6774 305.752 46.5805L308.958 47.5183L310.677 48.1175C314.542 49.5937 316.363 51.999 316.141 55.3334C316.004 57.5911 315.038 59.4494 313.242 60.9082C311.464 62.3497 309.164 63.1572 306.342 63.3309L305.29 63.357C303.426 63.3222 301.742 62.9575 300.237 62.2629C298.732 61.5508 297.577 60.5609 296.774 59.2931C295.97 58.0253 295.619 56.5665 295.722 54.9166L298.774 54.9427C298.774 56.7141 299.364 58.1121 300.544 59.1368C301.724 60.1614 303.349 60.6911 305.418 60.7259C307.471 60.7259 309.215 60.257 310.652 59.3192C312.088 58.364 312.909 57.0875 313.114 55.4897Z" fill="#D4B484"/>
</mask>
<g mask="url(#mask0_3_94)">
<rect x="-47.0282" y="-96.2958" width="132.127" height="197.07" fill="#D7B683"/>
<rect x="85.0986" y="-85.0986" width="293.366" height="197.07" fill="#D7B683"/>
</g>
</svg>
